<svg width="150" height="141" viewBox="0 0 150 141" fill="none" xmlns="http://www.w3.org/2000/svg">
<g id="vuesax/bold/cake">
<g id="cake">
<path id="Vector" d="M130.433 76.375V82.25H124.959C120.303 82.25 116.528 85.775 116.528 90.1813V91.9437C116.528 96.35 112.753 99.875 108.035 99.875C103.379 99.875 99.6037 96.35 99.6037 91.9437V90.1813C99.6037 85.775 95.7658 82.25 91.11 82.25C86.4542 82.25 82.6792 85.775 82.6792 90.1813V91.9437C82.6792 96.35 78.8412 99.875 74.1854 99.875C69.5296 99.875 65.6917 96.35 65.6917 91.9437V90.1813C65.6917 85.775 61.9167 82.25 57.2608 82.25C52.605 82.25 48.7671 85.775 48.7671 90.1813V91.9437C48.7671 96.35 44.9921 99.875 40.3362 99.875C35.6175 99.875 31.8425 96.35 31.8425 91.9437V90.0637C31.8425 85.7162 28.1304 82.1912 23.5375 82.1325H18.5671V76.375C18.5671 68.2675 25.1104 61.3937 33.9817 59.3962C35.7433 58.985 37.5679 58.75 39.5183 58.75H109.482C111.432 58.75 113.257 58.985 115.018 59.3962C123.89 61.3937 130.433 68.2675 130.433 76.375Z" fill="#6D27C7"/>
<path id="Vector_2" d="M115.018 42.1238V50.4075C113.194 50.055 111.369 49.9375 109.482 49.9375H39.5184C37.6309 49.9375 35.8063 50.1138 33.9817 50.4663V42.1238C33.9817 35.0738 40.7767 29.375 49.2075 29.375H99.7925C108.223 29.375 115.018 35.0738 115.018 42.1238Z" fill="#6D27C7"/>
<path id="Vector_3" d="M54.0521 20.8563V29.4338H49.2075C47.5716 29.4338 46.0616 29.61 44.6146 29.9625V20.8563C44.6146 18.8 46.7537 17.0375 49.3333 17.0375C51.9129 17.0375 54.0521 18.8 54.0521 20.8563Z" fill="#6D27C7"/>
<path id="Vector_4" d="M104.385 19.5638V29.9625C102.938 29.5513 101.428 29.375 99.7925 29.375H94.9479V19.5638C94.9479 17.155 97.0871 15.1575 99.6667 15.1575C102.246 15.1575 104.385 17.155 104.385 19.5638Z" fill="#6D27C7"/>
<path id="Vector_5" d="M79.2188 16.5675V29.375H69.7812V16.5675C69.7812 13.9237 71.9204 11.75 74.5 11.75C77.0796 11.75 79.2188 13.9237 79.2188 16.5675Z" fill="#6D27C7"/>
<path id="Vector_6" d="M137.417 124.844C137.417 127.253 135.277 129.25 132.698 129.25H16.3021C13.7225 129.25 11.5833 127.253 11.5833 124.844C11.5833 122.435 13.7225 120.438 16.3021 120.438H18.5671V90.945H22.405V91.3563C22.405 99.2288 27.9416 106.514 36.1837 108.218C42.6012 109.628 48.7042 107.689 52.8567 103.87C55.2475 101.638 59.1483 101.579 61.5391 103.811C64.8108 106.808 69.2779 108.688 74.1854 108.688C79.0929 108.688 83.56 106.866 86.8316 103.811C89.2225 101.638 93.0604 101.638 95.5142 103.87C99.6037 107.689 105.707 109.628 112.187 108.218C120.429 106.514 125.966 99.2288 125.966 91.3563V91.0625H130.433V120.438H132.698C135.277 120.438 137.417 122.435 137.417 124.844Z" fill="#6D27C7"/>
</g>
</g>
</svg>
