<svg width="40" height="34" viewBox="0 0 40 34" fill="none" xmlns="http://www.w3.org/2000/svg">
<g id="vuesax/bold/eye">
<path id="Vector" d="M35.4167 12.9625C31.5667 7.81999 25.9333 4.85916 20 4.85916C17.0333 4.85916 14.15 5.59583 11.5167 6.96999C8.88334 8.35833 6.51668 10.3842 4.58334 12.9625C2.91668 15.1867 2.91668 18.7992 4.58334 21.0233C8.43334 26.18 14.0667 29.1267 20 29.1267C22.9667 29.1267 25.85 28.39 28.4833 27.0158C31.1167 25.6275 33.4833 23.6017 35.4167 21.0233C37.0833 18.8133 37.0833 15.1867 35.4167 12.9625ZM20 22.7233C16.2667 22.7233 13.2667 20.1592 13.2667 17C13.2667 13.8408 16.2667 11.2767 20 11.2767C23.7333 11.2767 26.7333 13.8408 26.7333 17C26.7333 20.1592 23.7333 22.7233 20 22.7233Z" fill="#AC09BA"/>
<path id="Vector_2" d="M20 12.9483C17.3833 12.9483 15.25 14.7617 15.25 17C15.25 19.2242 17.3833 21.0375 20 21.0375C22.6167 21.0375 24.7667 19.2242 24.7667 17C24.7667 14.7758 22.6167 12.9483 20 12.9483Z" fill="#AC09BA"/>
</g>
</svg>
