<svg width="27" height="27" viewBox="0 0 27 27" fill="none" xmlns="http://www.w3.org/2000/svg">
<path d="M19.8 5.97381L13.4438 2.55381C12.7688 2.19381 11.97 2.19381 11.295 2.55381L4.95004 5.97381C4.48879 6.23256 4.19629 6.72756 4.19629 7.26756C4.19629 7.81881 4.47754 8.31381 4.95004 8.56131L11.3063 11.9813C11.6438 12.1613 12.015 12.2513 12.375 12.2513C12.735 12.2513 13.1175 12.1613 13.4438 11.9813L19.8 8.56131C20.2613 8.31381 20.5538 7.81881 20.5538 7.26756C20.5538 6.72756 20.2613 6.23256 19.8 5.97381Z" fill="#290771" fill-opacity="0.65"/>
<path d="M10.2601 13.1739L4.35381 10.2264C3.89256 9.99016 3.37506 10.0239 2.93631 10.2827C2.50881 10.5527 2.25006 11.0139 2.25006 11.5202V17.1002C2.25006 18.0677 2.79006 18.9339 3.65631 19.3727L9.56256 22.3202C9.76506 22.4214 9.99006 22.4777 10.2151 22.4777C10.4738 22.4777 10.7438 22.3989 10.9801 22.2639C11.4076 21.9939 11.6663 21.5327 11.6663 21.0264V15.4464C11.6551 14.4789 11.1151 13.6127 10.2601 13.1739Z" fill="#290771" fill-opacity="0.65"/>
<path d="M22.5 11.5202V14.2877C21.96 14.1302 21.3862 14.0627 20.8125 14.0627C19.2825 14.0627 17.7862 14.5914 16.605 15.5364C14.985 16.8077 14.0625 18.7314 14.0625 20.8127C14.0625 21.3639 14.13 21.9152 14.2762 22.4439C14.1075 22.4214 13.9387 22.3539 13.7812 22.2527C13.3537 21.9939 13.095 21.5327 13.095 21.0264V15.4464C13.095 14.4789 13.635 13.6127 14.49 13.1739L20.3962 10.2264C20.8575 9.99016 21.375 10.0239 21.8137 10.2827C22.2412 10.5527 22.5 11.0139 22.5 11.5202Z" fill="#290771" fill-opacity="0.65"/>
<path d="M24.7501 17.6625C24.7501 17.6512 24.7388 17.64 24.7276 17.6288C24.6826 17.5613 24.6263 17.4937 24.5701 17.4375C24.5588 17.4262 24.5476 17.4038 24.5363 17.3925C23.6251 16.38 22.2863 15.75 20.8126 15.75C19.3951 15.75 18.1013 16.335 17.1788 17.28C16.2901 18.1912 15.7501 19.44 15.7501 20.8125C15.7501 21.7575 16.0201 22.6575 16.4813 23.4225C16.7288 23.8387 17.0438 24.2212 17.4038 24.5362C17.4263 24.5475 17.4376 24.5588 17.4488 24.57C17.5051 24.6263 17.5613 24.6712 17.6288 24.7275C17.6288 24.7275 17.6288 24.7275 17.6401 24.7275C17.6513 24.7387 17.6626 24.75 17.6738 24.75C18.5176 25.4587 19.6088 25.875 20.8126 25.875C22.6576 25.875 24.2663 24.885 25.1438 23.4225C25.4026 22.9837 25.6051 22.5 25.7288 21.9937C25.8301 21.6112 25.8751 21.2175 25.8751 20.8125C25.8751 19.62 25.4588 18.5175 24.7501 17.6625ZM22.7026 21.6337H21.6563V22.725C21.6563 23.1863 21.2738 23.5688 20.8126 23.5688C20.3513 23.5688 19.9688 23.1863 19.9688 22.725V21.6337H18.9226C18.4613 21.6337 18.0788 21.2512 18.0788 20.79C18.0788 20.3287 18.4613 19.9462 18.9226 19.9462H19.9688V18.945C19.9688 18.4838 20.3513 18.1013 20.8126 18.1013C21.2738 18.1013 21.6563 18.4838 21.6563 18.945V19.9462H22.7026C23.1638 19.9462 23.5463 20.3287 23.5463 20.79C23.5463 21.2512 23.1751 21.6337 22.7026 21.6337Z" fill="#290771" fill-opacity="0.65"/>
</svg>
